<?xml version="1.0" encoding="UTF-8" standalone="no"?>
<!-- Generator: Adobe Illustrator 16.0.4, SVG Export Plug-In . SVG Version: 6.00 Build 0)  -->
<!DOCTYPE svg  PUBLIC '-//W3C//DTD SVG 1.1//EN'  'http://www.w3.org/Graphics/SVG/1.1/DTD/svg11.dtd' [
	<!ENTITY ns_flows "http://ns.adobe.com/Flows/1.0/">
	<!ENTITY ns_extend "http://ns.adobe.com/Extensibility/1.0/">
	<!ENTITY ns_ai "http://ns.adobe.com/AdobeIllustrator/10.0/">
	<!ENTITY ns_graphs "http://ns.adobe.com/Graphs/1.0/">
]>
<svg id="Layer_1" xmlns="http://www.w3.org/2000/svg" enable-background="new 0 0 39.723 39.723" xml:space="preserve" height="39.723px" viewBox="0 0 39.723 39.723" width="39.723px" version="1.1" y="0px" x="0px" xmlns:xlink="http://www.w3.org/1999/xlink">
	<path d="m19.859 0c-10.949 0-19.859 8.91-19.859 19.859 0 4.493 1.461 8.731 4.227 12.254 3.796 4.836 9.496 7.609 15.636 7.609 6.141 0 11.836-2.773 15.633-7.613 2.766-3.523 4.227-7.762 4.227-12.25 0-10.949-8.911-19.859-19.864-19.859zm7.621 18.695c-0.086-1.926-0.379-3.742-0.801-5.426 2.453-0.597 4.559-1.449 6.285-2.332 1.531 2.242 2.488 4.899 2.699 7.758h-8.183zm-7.753 17.024c-0.059 0-0.114-0.004-0.168-0.004-1.028-1.328-2.645-3.766-3.825-7.148 1.289-0.203 2.664-0.328 4.129-0.328 1.29 0 2.512 0.094 3.672 0.258-1.203 3.296-2.808 5.827-3.808 7.222zm0.132-9.883c-1.718 0-3.32 0.164-4.816 0.418-0.391-1.566-0.668-3.289-0.75-5.16h10.793c-0.098 1.805-0.398 3.504-0.82 5.082-1.379-0.211-2.848-0.34-4.407-0.34zm-15.8-7.141c0.211-2.859 1.168-5.516 2.699-7.758 1.629 0.832 3.601 1.641 5.887 2.231-0.399 1.683-0.668 3.531-0.747 5.527h-7.839zm10.23 0c0.082-1.812 0.34-3.488 0.711-5.023 1.512 0.257 3.133 0.406 4.859 0.406 1.579 0 3.063-0.129 4.461-0.344 0.398 1.543 0.68 3.203 0.77 4.961h-10.801zm5.441-14.687c1.024 1.418 2.668 4.015 3.875 7.406-1.18 0.164-2.43 0.265-3.747 0.265-1.48 0-2.879-0.121-4.187-0.332 1.187-3.468 2.844-5.976 3.887-7.332 0.059 0 0.114-0.007 0.172-0.007zm11.684 5.019c-1.516 0.738-3.328 1.438-5.41 1.934-0.934-2.742-2.145-5.012-3.188-6.676 3.364 0.641 6.344 2.344 8.598 4.742zm-15.074-4.621c-1.028 1.602-2.172 3.77-3.047 6.449-1.906-0.488-3.574-1.14-4.984-1.828 2.125-2.265 4.898-3.906 8.031-4.621zm-12.289 16.692h7.851c0.086 2.051 0.371 3.938 0.793 5.656-2.328 0.598-4.289 1.398-5.832 2.18-1.633-2.332-2.597-5.004-2.812-7.836zm4.363 9.738c1.348-0.645 3.016-1.285 4.938-1.773 0.875 2.602 1.992 4.707 2.996 6.27-3.016-0.677-5.766-2.231-7.934-4.497zm14.398 4.609c1.02-1.625 2.203-3.836 3.133-6.504 2.07 0.488 3.866 1.18 5.359 1.895-2.3 2.406-5.253 4.004-8.492 4.609zm10.051-6.515c-1.699-0.859-3.789-1.703-6.23-2.293 0.445-1.711 0.75-3.566 0.844-5.539h8.195c-0.215 2.832-1.18 5.5-2.809 7.832z" fill="#fff"/>
</svg>
